<?xml version="1.0" encoding="utf-8" standalone="yes"?><!-- Generator: Adobe Illustrator 26.3.1, SVG Export Plug-In . SVG Version: 6.00 Build 0)  --><svg xmlns="http://www.w3.org/2000/svg" xmlns:xlink="http://www.w3.org/1999/xlink" version="1.1" id="Layer_1" x="0px" y="0px" viewBox="0 0 1920 1920" style="enable-background:new 0 0 1920 1920;zoom: 1;" xml:space="preserve"><style type="text/css">
        .st0{fill:#202029;}
        
                .st1{clip-path:url(#SVGID_00000142165686650570152520000000597210357726192526_);fill:url(#SVGID_00000003827280041377226960000007433761832134914477_);}
        .st2{fill:#55556D;}
        .st3{fill:#FFFFFF;}
        
                .st4{clip-path:url(#SVGID_00000062898100842101556900000002292761332764535720_);fill:url(#SVGID_00000074437820209408212470000015310071376664918426_);}
        .st5{fill:#FF57C3;}
        .st6{fill:#009EFF;}
        .st7{fill:#FCDD00;}
</style><rect y="0" class="st0" width="1920" height="1920"></rect><g><defs><rect id="SVGID_1_" y="0" width="1920" height="1920"></rect></defs><clipPath id="SVGID_00000042696290860583090390000005175906444872970672_"><use xlink:href="#SVGID_1_" style="overflow:visible;"></use></clipPath><linearGradient id="SVGID_00000134955015875871402410000004517650032867147696_" gradientUnits="userSpaceOnUse" x1="1812.7157" y1="2943.3472" x2="1812.7157" y2="-1109.5454"><stop offset="0" style="stop-color:#202029"></stop><stop offset="1" style="stop-color:#32324C"></stop></linearGradient><path style="clip-path:url(#SVGID_00000042696290860583090390000005175906444872970672_);fill:url(#SVGID_00000134955015875871402410000004517650032867147696_);" d="M5284.9,1818.4L4258.2,31.4l-505,882.2L3463.8,410l-210.1,366.9L2411.9-688.3l-895.4,1564l-113.9-198.2l197.9-0.1l-1026.8-1787 L-143.4,143.3l-363.2-632.2L-1530,1298.9l545.4-0.2l-674.9,1178.9l1902.4-0.6l-267,466.4l2050.1-0.7L1460,1957.4l1118.2-0.4 l-137.8,240.6l2050.1-0.7l-217.3-378.3L5284.9,1818.4z M4258.3,126.8L5202.9,1771l-957,0.3l-465.4-810L4258.3,126.8z M4191.2,1771.3l-874.6,0.3l436.6-762.6L4191.2,1771.3z M2412-592.9l814.5,1417.5l-129.8,226.7l-491,0.2L2099,169.8l-493.2,861.5 l-62-107.9L2412-592.9z M3253.8,872.3l102.8,179l-205.3,0.1L3253.8,872.3z M3069.4,1098.8l-217.9,380.6L2632.9,1099L3069.4,1098.8z M2550.9,1051.5l-902.1,0.3l450.3-786.6L2550.9,1051.5z M1563,1051.9l-92.6,0l46.2-80.8L1563,1051.9z M1489.2,923.5l-100.7,175.9 l178.4-0.1l-279.5,488.3l-39.9,0l-248.2-432l-247.4,432.1l-767.5,0.2l165.9-289.8l369.8-0.1L334.9,975.8l170.6-298l842.4-0.3 L1489.2,923.5z M1606,1126.7l264.7,460.8l-528.6,0.2L1606,1126.7z M1192.8,1587.7l-386.2,0.1l192.8-336.7L1192.8,1587.7z M-286.5,1298.4l382.1-0.1l-190.7,333.1L-286.5,1298.4z M724.8,1635.3l-408.1,712.9l-409.4-712.6L724.8,1635.3z M177.5,1250.8 l130.1-227.3l130.5,227.2L177.5,1250.8z M307.5,928.1L163.8,677.9l287-0.1L307.5,928.1z M532.7,630.4L926-56.7l394.6,686.8 L532.7,630.4z M573.9-1014.1L1518.6,630l-143.2,0L925.9-152.1L478,630.4l-341.5,0.1L-116,191L573.9-1014.1z M81.8,630.5l-449.5,0.1 l224.4-391.9L81.8,630.5z M-1448.2,1251.4l941.6-1644.8l335.8,584.5l-278.8,487.1L109,678l171.2,297.9l-157.4,275l-436.5,0.1 l-322.4-561.1l-321.3,561.3L-1448.2,1251.4z M-368.4,1251l-534.3,0.2L-636,785.3L-368.4,1251z M-1577.6,2430.1l647.7-1131.4 l588.8-0.2l630.5,1097.4l-19.2,33.6L-1577.6,2430.1z M1944.1,2895.2l-1886.3,0.6l239.8-418.9l93,0l-46.6-81.1l435.4-760.6 l440.6-0.1l20.1,35l-164.5,287.4l329.6-0.1L1944.1,2895.2z M1267.6,1717.8l110.4,192.2l-220.5,0.1L1267.6,1717.8z M1432.7,1909.9 l-137.8-239.9l20-35l637.8-0.2L1645,1099.3l933.2-0.3l246,428.2l-218.9,382.3L1432.7,1909.9z M2851.6,1574.9l192.2,334.5 l-383.8,0.1L2851.6,1574.9z M4408.6,2149.6l-1886.3,0.6l110.6-193.2l492.9-0.2l-246.9-429.7l245.2-428.3l314.5-0.1l-157.5-274.1 l182.7-319.2l262,455.9l-491,857.8l983.7-0.3L4408.6,2149.6z"></path></g><g><g><path class="st2" d="M533.7,710.2 c-102.1,0 -185.2,83.1 -185.2,185.2 v271.8 c0,23.5 19,42.5 42.5,42.5 c23.5,0 42.5,-19 42.5,-42.5 v-116.2 c28.9,18.6 63.2,29.5 100.1,29.5 c102.1,0 185.2,-83.1 185.2,-185.2 S635.8,710.2 533.7,710.2 M533.7,995.5 c-55.2,0 -100.1,-44.9 -100.1,-100.1 c0,-55.2 44.9,-100.1 100.1,-100.1 c55.2,0 100.1,44.9 100.1,100.1 C633.8,950.6 588.9,995.5 533.7,995.5 "></path><path class="st2" d="M977.9,710.2c-102.1,0-185.2,83.1-185.2,185.2v271.8c0,23.5,19,42.5,42.5,42.5c23.5,0,42.5-19,42.5-42.5 v-116.2c28.9,18.6,63.3,29.5,100.1,29.5c102.1,0,185.2-83.1,185.2-185.2S1080.1,710.2,977.9,710.2z M977.9,995.5 c-55.2,0-100.1-44.9-100.1-100.1c0-55.2,44.9-100.1,100.1-100.1c55.2,0,100.1,44.9,100.1,100.1 C1078.1,950.6,1033.2,995.5,977.9,995.5z"></path><path class="st2" d="M1564.3,776.3c13-19.6,7.7-46-11.9-59c-19.6-13-46-7.7-59,11.9l-102.4,154l-102.4-154 c-13-19.6-39.4-24.9-59-11.9c-19.6,13-24.9,39.4-11.9,59L1340.1,960l-122.1,183.7c-13,19.6-7.7,46,11.9,59 c7.2,4.8,15.4,7.1,23.5,7.1c13.8,0,27.3-6.7,35.5-19l137.7-207.1c0.1-0.1,0.2-0.2,0.2-0.3L1564.3,776.3z"></path></g></g><circle class="st3" cx="391.1" cy="1167.2" r="42.5"></circle><circle class="st3" cx="835.3" cy="1167.2" r="42.5"></circle><circle class="st3" cx="1253.3" cy="1167.2" r="42.5"></circle><g><defs><rect id="SVGID_00000144297552728997456020000010754571100103721617_" x="-1940" y="0" width="1920" height="1920"></rect></defs><clipPath id="SVGID_00000102529473832655402290000004768465265267488392_"><use xlink:href="#SVGID_00000144297552728997456020000010754571100103721617_" style="overflow:visible;"></use></clipPath><linearGradient id="SVGID_00000112627982845876040970000016822290409524220587_" gradientUnits="userSpaceOnUse" x1="-127.2843" y1="2943.3472" x2="-127.2843" y2="-1109.5454"><stop offset="0" style="stop-color:#202029"></stop><stop offset="1" style="stop-color:#32324C"></stop></linearGradient></g><g><g><path class="st5" d="M-1406.3,1080.6c-102.1,0-185.2-83.1-185.2-185.2s83.1-185.2,185.2-185.2s185.2,83.1,185.2,185.2 S-1304.2,1080.6-1406.3,1080.6z M-1406.3,795.3c-55.2,0-100.1,44.9-100.1,100.1c0,55.2,44.9,100.1,100.1,100.1 s100.1-44.9,100.1-100.1C-1306.2,840.2-1351.1,795.3-1406.3,795.3z"></path></g><g><path class="st5" d="M-1548.9,1209.8c-23.5,0-42.5-19-42.5-42.5V895.4c0-23.5,19-42.5,42.5-42.5s42.5,19,42.5,42.5v271.8 C-1506.4,1190.7-1525.4,1209.8-1548.9,1209.8z"></path></g></g><g><g><path class="st6" d="M-962.1,1080.6c-102.1,0-185.2-83.1-185.2-185.2s83.1-185.2,185.2-185.2s185.2,83.1,185.2,185.2 S-859.9,1080.6-962.1,1080.6z M-962.1,795.3c-55.2,0-100.1,44.9-100.1,100.1c0,55.2,44.9,100.1,100.1,100.1 c55.2,0,100.1-44.9,100.1-100.1C-861.9,840.2-906.8,795.3-962.1,795.3z"></path></g><g><path class="st6" d="M-1104.7,1209.8c-23.5,0-42.5-19-42.5-42.5V895.4c0-23.5,19-42.5,42.5-42.5c23.5,0,42.5,19,42.5,42.5v271.8 C-1062.2,1190.7-1081.2,1209.8-1104.7,1209.8z"></path></g></g><g><g><path class="st7" d="M-686.7,1209.8c-8.1,0-16.3-2.3-23.5-7.1c-19.6-13-24.9-39.4-11.9-59l275.6-414.5c13-19.6,39.4-24.9,59-11.9 c19.6,13,24.9,39.4,11.9,59l-275.6,414.5C-659.4,1203.1-673,1209.8-686.7,1209.8z"></path></g><g><path class="st7" d="M-548.8,1002.5c-13.8,0-27.3-6.7-35.5-19l-137.8-207.2c-13-19.6-7.7-46,11.9-59c19.6-13,46-7.7,59,11.9 l137.8,207.2c13,19.6,7.7,46-11.9,59C-532.6,1000.2-540.7,1002.5-548.8,1002.5z"></path></g></g><circle class="st3" cx="-1548.9" cy="1167.2" r="42.5"></circle><circle class="st3" cx="-1104.7" cy="1167.2" r="42.5"></circle><circle class="st3" cx="-686.7" cy="1167.2" r="42.5"></circle><rect y="1940" class="st0" width="1920" height="1920"></rect><rect x="-1940" y="1940" class="st0" width="1920" height="1920"></rect><g><g><path class="st2" d="M533.7,2650.2c-102.1,0-185.2,83.1-185.2,185.2v271.8c0,23.5,19,42.5,42.5,42.5c23.5,0,42.5-19,42.5-42.5 v-116.2c28.9,18.6,63.2,29.5,100.1,29.5c102.1,0,185.2-83.1,185.2-185.2S635.8,2650.2,533.7,2650.2z M533.7,2935.5 c-55.2,0-100.1-44.9-100.1-100.1c0-55.2,44.9-100.1,100.1-100.1c55.2,0,100.1,44.9,100.1,100.1 C633.8,2890.6,588.9,2935.5,533.7,2935.5z"></path><path class="st2" d="M977.9,2650.2c-102.1,0-185.2,83.1-185.2,185.2v271.8c0,23.5,19,42.5,42.5,42.5c23.5,0,42.5-19,42.5-42.5 v-116.2c28.9,18.6,63.3,29.5,100.1,29.5c102.1,0,185.2-83.1,185.2-185.2S1080.1,2650.2,977.9,2650.2z M977.9,2935.5 c-55.2,0-100.1-44.9-100.1-100.1c0-55.2,44.9-100.1,100.1-100.1c55.2,0,100.1,44.9,100.1,100.1 C1078.1,2890.6,1033.2,2935.5,977.9,2935.5z"></path><path class="st2" d="M1564.3,2716.3c13-19.6,7.7-46-11.9-59c-19.6-13-46-7.7-59,11.9l-102.4,154l-102.4-154 c-13-19.6-39.4-24.9-59-11.9c-19.6,13-24.9,39.4-11.9,59l122.1,183.7l-122.1,183.7c-13,19.6-7.7,46,11.9,59 c7.2,4.8,15.4,7.1,23.5,7.1c13.8,0,27.3-6.7,35.5-19l137.7-207.1c0.1-0.1,0.2-0.2,0.2-0.3L1564.3,2716.3z"></path></g></g><circle class="st3" cx="391.1" cy="3107.2" r="42.5"></circle><circle class="st3" cx="835.3" cy="3107.2" r="42.5"></circle><circle class="st3" cx="1253.3" cy="3107.2" r="42.5"></circle><g><g><path class="st5" d="M-1406.3,3020.6c-102.1,0-185.2-83.1-185.2-185.2c0-102.1,83.1-185.2,185.2-185.2s185.2,83.1,185.2,185.2 C-1221.1,2937.5-1304.2,3020.6-1406.3,3020.6z M-1406.3,2735.3c-55.2,0-100.1,44.9-100.1,100.1c0,55.2,44.9,100.1,100.1,100.1 s100.1-44.9,100.1-100.1C-1306.2,2780.2-1351.1,2735.3-1406.3,2735.3z"></path></g><g><path class="st5" d="M-1548.9,3149.8c-23.5,0-42.5-19-42.5-42.5v-271.8c0-23.5,19-42.5,42.5-42.5s42.5,19,42.5,42.5v271.8 C-1506.4,3130.7-1525.4,3149.8-1548.9,3149.8z"></path></g></g><g><g><path class="st6" d="M-962.1,3020.6c-102.1,0-185.2-83.1-185.2-185.2c0-102.1,83.1-185.2,185.2-185.2s185.2,83.1,185.2,185.2 C-776.9,2937.5-859.9,3020.6-962.1,3020.6z M-962.1,2735.3c-55.2,0-100.1,44.9-100.1,100.1c0,55.2,44.9,100.1,100.1,100.1 c55.2,0,100.1-44.9,100.1-100.1C-861.9,2780.2-906.8,2735.3-962.1,2735.3z"></path></g><g><path class="st6" d="M-1104.7,3149.8c-23.5,0-42.5-19-42.5-42.5v-271.8c0-23.5,19-42.5,42.5-42.5c23.5,0,42.5,19,42.5,42.5v271.8 C-1062.2,3130.7-1081.2,3149.8-1104.7,3149.8z"></path></g></g><g><g><path class="st7" d="M-686.7,3149.8c-8.1,0-16.3-2.3-23.5-7.1c-19.6-13-24.9-39.4-11.9-59l275.6-414.5c13-19.6,39.4-24.9,59-11.9 c19.6,13,24.9,39.4,11.9,59l-275.6,414.5C-659.4,3143.1-673,3149.8-686.7,3149.8z"></path></g><g><path class="st7" d="M-548.8,2942.5c-13.8,0-27.3-6.7-35.5-19l-137.8-207.2c-13-19.6-7.7-46,11.9-59c19.6-13,46-7.7,59,11.9 l137.8,207.2c13,19.6,7.7,46-11.9,59C-532.6,2940.2-540.7,2942.5-548.8,2942.5z"></path></g></g><circle class="st3" cx="-1548.9" cy="3107.2" r="42.5"></circle><circle class="st3" cx="-1104.7" cy="3107.2" r="42.5"></circle><circle class="st3" cx="-686.7" cy="3107.2" r="42.5"></circle></svg>